<svg width="70" height="69" viewBox="0 0 70 69" fill="none" xmlns="http://www.w3.org/2000/svg">
  <g filter="url(#filter0_d_10_746)">
  <path d="M55.0001 34C50.4001 42.7342 43.7343 49.4 35.0001 54C26.2685 49.4 19.6014 42.7329 15.0001 34C19.6001 25.2658 26.2659 18.6 35.0001 14C43.7343 18.6 50.4001 25.2658 55.0001 34Z" fill="url(#paint0_linear_10_746)"/>
  </g>
  <mask id="mask0_10_746" style="mask-type:alpha" maskUnits="userSpaceOnUse" x="15" y="14" width="40" height="40">
  <path d="M55.0001 34C50.4001 42.7342 43.7343 49.4 35.0001 54C26.2685 49.4 19.6014 42.7329 15.0001 34C19.6001 25.2658 26.2659 18.6 35.0001 14C43.7343 18.6 50.4001 25.2658 55.0001 34Z" fill="white"/>
  </mask>
  <g mask="url(#mask0_10_746)">
  <path d="M23.5746 8.17689L16.9729 14.7786L30.6236 28.4294C33.0901 30.8959 37.0891 30.8959 39.5555 28.4294L53.2063 14.7786L46.6045 8.17689H61.0013V22.5737L54.3933 15.9657L40.7426 29.6165C38.2761 32.083 38.2761 36.0819 40.7426 38.5484L54.3933 52.1991L61.0013 45.5911V60.001H46.5915L53.2063 53.3862L39.5555 39.7355C37.0891 37.269 33.0901 37.269 30.6236 39.7355L16.9729 53.3862L23.5876 60.001H9.17725V45.5906L15.7858 52.1991L29.4365 38.5484C31.903 36.0819 31.903 32.083 29.4365 29.6165L15.7858 15.9657L9.17725 22.5743V8.17689H23.5746Z" fill="#040102" fill-opacity="0.7"/>
  </g>
  <defs>
  <filter id="filter0_d_10_746" x="0.947539" y="0.616716" width="68.1049" height="68.1049" filterUnits="userSpaceOnUse" color-interpolation-filters="sRGB">
  <feFlood flood-opacity="0" result="BackgroundImageFix"/>
  <feColorMatrix in="SourceAlpha" type="matrix" values="0 0 0 0 0 0 0 0 0 0 0 0 0 0 0 0 0 0 127 0" result="hardAlpha"/>
  <feOffset dy="0.669165"/>
  <feGaussianBlur stdDeviation="7.02623"/>
  <feComposite in2="hardAlpha" operator="out"/>
  <feColorMatrix type="matrix" values="0 0 0 0 0.741176 0 0 0 0 0.00392157 0 0 0 0 0.278431 0 0 0 0.6 0"/>
  <feBlend mode="normal" in2="BackgroundImageFix" result="effect1_dropShadow_10_746"/>
  <feBlend mode="normal" in="SourceGraphic" in2="effect1_dropShadow_10_746" result="shape"/>
  </filter>
  <linearGradient id="paint0_linear_10_746" x1="32.5427" y1="31.6613" x2="46.5509" y2="45.5498" gradientUnits="userSpaceOnUse">
  <stop stop-color="#BD0147"/>
  <stop offset="1" stop-color="#BD5001"/>
  </linearGradient>
  </defs>
  </svg>
  